<?xml version="1.0" encoding="utf-8"?>
<!-- Generator: Adobe Illustrator 22.0.0, SVG Export Plug-In . SVG Version: 6.00 Build 0)  -->
<svg version="1.1" id="Calque_1" xmlns="http://www.w3.org/2000/svg" xmlns:xlink="http://www.w3.org/1999/xlink" x="0px" y="0px"
	 viewBox="0 0 432 432" style="enable-background:new 0 0 432 432;" xml:space="preserve">
<style type="text/css">
	.st0{fill:#07672F;}
	.st1{fill:#F2F2F2;}
	.st2{fill:#544842;}
	.st3{fill:#C69C6C;}
	.st4{fill:#020203;}
	.st5{fill:#F39323;}
	.st6{fill:#05AB9E;}
	.st7{fill:#0D71B9;}
	.st8{fill:#354294;}
	.st9{fill:#28285B;}
	.st10{fill:#CDCCCC;}
	.st11{fill:#C1292E;}
	.st12{fill:#412413;}
	.st13{fill:#9E1460;}
	.st14{fill:#FFFFFF;}
	.st15{fill:#BB8C3E;}
	.st16{fill:#E7E6E6;}
	.st17{fill:#066938;}
	.st18{fill:#A3282E;}
	.st19{fill:#20457C;}
	.st20{fill:#1D3259;}
	.st21{fill:#EAA35C;}
	.st22{fill:#009245;}
	.st23{fill:#BE1622;}
	.st24{fill:#B092C2;}
	.st25{fill:#9E79B4;}
	.st26{fill:#BA9BC9;}
	.st27{fill:#00A19A;}
	.st28{fill:#575756;}
	.st29{fill:#634E42;}
	.st30{fill:#828BC5;}
	.st31{fill:#A3195B;}
	.st32{fill:#014837;}
	.st33{fill:#C67B3E;}
	.st34{fill:#921D25;}
	.st35{fill:#1A405B;}
	.st36{fill:#6BC4CD;}
	.st37{fill:#DADADA;}
</style>
<g>
	<g>
		<g>
			<path d="M280.4,246.3c-1.1,0.7-2,1.4-2.9,2c-1.1,0.7-2.3,1.1-3.6,1.2c-2.6,0.1-4.8-1.7-5.2-4.6c-0.1-1.1,0-2.1,0.3-3.1
				c0.4-1.2,0.8-2.3,1.2-3.5c0.1-0.2,0.2-0.4,0.3-0.7c-1.7,0.2-3.4,0.4-5,0.5c-1.7,0.1-3.3,0-5.1,0c-0.1,0.2-0.3,0.6-0.5,0.9
				c-1.2,2.2-2.6,4.2-4.3,6.1c-1.3,1.4-2.8,2.7-4.5,3.6c-1.1,0.6-2.4,1.1-3.7,1c-3.1-0.2-5.1-2.6-4.9-5.7c0-0.5,0.1-0.9,0.1-1.6
				c-0.4,0.3-0.7,0.5-0.9,0.7c-2.8,2.6-5.7,5.3-8.5,7.9c-0.7,0.7-1.4,1.4-2.2,1.9c-0.5,0.4-1.2,0.7-1.8,0.9
				c-2.6,0.6-4.7-1.4-4.5-4.2c0.1-1.5,0.5-3,1.1-4.4c1.2-3.2,2.7-6.2,4.3-9.2c0.2-0.3,0.3-0.6,0.3-1c-0.3,0.2-0.5,0.5-0.8,0.7
				c-1.3,1.4-2.6,2.9-3.9,4.3c-1.8,1.9-3.8,3.7-5.6,5.7c-1.7,1.8-3.3,3.7-5,5.5c-0.5,0.6-1.1,1-1.8,1.3c-1.8,0.6-3.7-0.6-3.8-2.5
				c-0.1-0.8,0.1-1.7,0.3-2.5c1-3.1,2.1-6.1,3.7-9c0.1-0.2,0.2-0.5,0.3-0.7c-0.1-0.1-0.2-0.1-0.2-0.2c-0.1,0.2-0.3,0.5-0.4,0.7
				c-2.7,3.2-5.3,6.4-8,9.6c-0.6,0.7-1,1.6-1.4,2.4c-0.6,1.1-1.3,1.9-2.6,2c-1.4,0-2.5-0.9-2.6-2.3c-0.1-0.9,0-1.9,0.2-2.8
				c0.8-3.7,1.7-7.4,2.7-11c0.5-1.8,1.3-3.6,2-5.4c0.2-0.6,0.6-1.1,1-1.6c0.5-0.6,1.1-0.9,1.9-0.7c0.7,0.2,1.1,0.9,1.1,1.6
				c-0.1,1.4-0.1,2.8-0.4,4.2c-0.5,3.1-1.1,6.2-1.7,9.6c0.3-0.3,0.5-0.5,0.7-0.6c1.6-1.8,3.2-3.7,4.8-5.6c1.7-1.9,3.6-3.6,5.5-5.3
				c1.7-1.4,3.5-0.8,3.8,1.5c0.2,1.5-0.1,2.9-0.4,4.2c-0.5,1.8-1.1,3.6-1.6,5.4c-0.1,0.3-0.2,0.7-0.2,1.1c0.2-0.2,0.4-0.3,0.5-0.5
				c2.7-3,5.3-6,8-9c1.4-1.6,2.9-3.1,4.7-4.4c0.4-0.3,0.9-0.6,1.4-0.8c1.6-0.6,3.2,0.1,3.6,1.8c0.2,0.8,0.2,1.8,0.1,2.6
				c-0.3,2.6-1.3,5.1-2,7.6c-0.4,1.4-0.9,2.7-1.3,4.1c-0.1,0.2-0.1,0.4-0.2,0.9c0.4-0.3,0.7-0.5,1-0.7c3.5-2.9,7.1-5.8,10.6-8.6
				c0.3-0.3,0.5-0.6,0.8-0.9c0.9-1.3,1.7-2.7,2.7-3.9c0.7-0.9,1.6-1.6,2.6-2.6c0-0.1-0.1-0.5-0.1-0.8c-0.4-3.3,0.2-6.3,2.3-8.9
				c0.9-1.1,2-2,3.4-2.5c2.9-1,6,0.2,7.4,2.9c1.2,2.4,1.5,4.9,1,7.5c-0.4,1.9-0.9,3.8-1.7,5.6c-0.1,0.3-0.3,0.7-0.4,1.2
				c0.7,0.1,1.3,0.2,1.9,0.2c2.6,0.1,5.2-0.1,7.7-0.5c0.6-0.1,0.9-0.3,1.2-0.7c1.2-1.6,2.5-3,4.1-4.1c1.1-0.8,2.3-1.3,3.7-1.3
				c1.7-0.1,3,0.6,4.1,1.9c0.2,0.2,0.4,0.5,0.7,0.9c0.2-0.5,0.4-0.9,0.5-1.3c2.9-8.1,5.8-16.3,8.8-24.4c3.4-9.3,7.3-18.4,12.1-27.1
				c1.2-2.2,2.5-4.3,4.1-6.2c0.6-0.7,1.3-1.4,2-1.9c2-1.3,3.9-0.8,5.1,1.2c0.9,1.5,1.1,3.2,1.1,4.9c-0.1,2-0.5,3.9-1,5.8
				c-1.5,6.8-4.1,13.3-6.9,19.6c-1.9,4.3-3.9,8.5-5.9,12.7c-2.3,4.8-5.1,9.4-8.2,13.7c-1.7,2.4-3.7,4.5-5.8,6.6
				c-0.3,0.3-0.6,0.7-0.8,1.2c-2.7,8.3-5,16.7-6.5,25.4c-0.2,1.3-0.3,2.6-0.4,3.8c0,0.6,0.1,1.3,0.1,2.1c0.6-0.2,1.2-0.3,1.6-0.6
				c2.8-1.4,5.2-3.2,7.2-5.6c3.9-4.7,7.9-9.4,11.8-14.2c2.2-2.7,4.1-5.5,6.2-8.3c1.1-1.4,2-3,2.7-4.7c0.9-2.3,2.2-4.4,3.9-6.2
				c1.3-1.4,2.7-2.6,4.7-2.9c0.9-0.1,1.8-0.2,2.6,0c2.1,0.4,3.4,2.5,3,4.6c-0.7,3.8-4.1,6.7-8,6.8c-0.4,0-0.7,0-1.2,0
				c-0.2,1-0.4,2-0.5,2.9c-0.1,1.3-0.3,2.6-0.3,3.9c0,1.2,0.3,2.3,1,3.3c0.5,0.7,1.2,1.2,2.1,1.3c1.3,0.1,2.5,0.2,3.7-0.3
				c2-0.7,3.8-1.6,5.5-2.9c2-1.5,4-3.2,6-4.8c0.4-0.3,0.6-0.7,0.7-1.3c0.5-3.9,1.8-7.7,3-11.4c2.8-8.6,6.1-16.9,10.5-24.8
				c3.2-5.8,6.9-11.4,10.6-16.8c1.4-2,3-4,4.6-5.8c0.9-1.1,2-2,3-2.9c0.5-0.5,1.2-0.8,1.8-1.1c2.5-1.1,5,0,6,2.5
				c0.6,1.5,0.7,3.1,0.7,4.7c0,2.6-0.6,5.1-1.5,7.5c-2.9,7.5-6.6,14.7-11.4,21.1c-4.1,5.5-8.9,10.3-14.3,14.6
				c-0.8,0.7-1.8,1.2-2.7,1.8c-0.2,0.2-0.4,0.4-0.5,0.7c-1.1,3.3-1.9,6.6-2.2,10c-0.2,1.8-0.3,3.5-0.4,5.3c0,1.2,0.3,2.4,1,3.5
				c0.9,1.3,1.6,1.4,2.7,0.7c1.3-0.8,2.6-1.5,3.8-2.4c5.5-3.9,10.5-8.3,14.9-13.3c0.6-0.7,1.3-1.4,2-2.1c0.3-0.3,0.7-0.6,1.2-0.8
				c0.8-0.3,1.5,0.3,1.3,1.1c-0.1,0.5-0.4,1.1-0.8,1.5c-1.9,2.6-4,5-6.2,7.4c-3.8,4.2-8,7.8-12.4,11.3c-0.8,0.7-1.7,1.3-2.6,1.8
				c-3.5,1.8-7.3,1.1-9.8-2c-1.4-1.7-2.1-3.6-2.4-5.8c0-0.4-0.1-0.8-0.1-1.3c-0.3,0.3-0.6,0.4-0.8,0.6c-2.4,2-4.8,4-7.3,5.9
				c-2.5,1.9-5.3,2.8-8.5,2.7c-4.4-0.1-7.9-3.1-8.6-7.5c0-0.3-0.1-0.5-0.1-0.9c-0.2,0.1-0.3,0.2-0.4,0.3c-3.8,4.7-7.5,9.4-11.3,14.1
				c-1.1,1.3-2.1,2.7-3.1,4.1c-2.2,2.9-4.9,5.3-7.9,7.5c-0.9,0.6-1.9,1.2-3,1.5c-3.8,1.3-7-0.8-7.5-4.8c-0.3-2.1-0.2-4.3,0.2-6.4
				c0.6-3.9,1.4-7.7,2.1-11.5C279.9,248.2,280.1,247.4,280.4,246.3z M347.2,224.9c0.1,0,0.1,0.1,0.2,0.1c0.1-0.1,0.2-0.1,0.3-0.2
				c2.5-2.4,5-4.8,7.4-7.3c6.4-6.8,11.4-14.5,15-23.2c1-2.4,1.8-4.9,2.5-7.3c0.6-2.1,0.7-4.2,0.4-6.4c-0.1-0.4-0.2-0.9-0.4-1.3
				c-0.3-0.7-0.7-0.8-1.3-0.3c-0.4,0.3-0.8,0.7-1.1,1.1c-1.3,1.7-2.7,3.3-3.8,5.2c-1.9,3.1-3.7,6.4-5.5,9.6
				c-4.4,7.8-8.4,15.8-11.5,24.3C348.7,221,348,223,347.2,224.9z M292.9,229.3c0.1,0,0.1,0,0.2,0.1c0.3-0.4,0.6-0.8,0.9-1.2
				c2.7-3.9,5.2-7.9,7.3-12.1c3.3-6.7,6.2-13.7,8.8-20.7c1.9-5.4,3.9-10.7,5-16.4c0.3-1.4,0.4-2.8,0.5-4.2c0.1-0.7-0.1-1.4-0.7-2.1
				c-0.4,0.5-0.8,0.9-1.1,1.4c-0.7,1.3-1.5,2.6-2.1,4c-1.9,4.7-3.9,9.3-5.7,14.1c-3.9,10.8-7.7,21.6-11.5,32.4
				C294,226.1,293.4,227.7,292.9,229.3z M273.8,243.8c0,1.1,0.3,1.5,1.3,1.2c2-0.7,3.9-1.4,5.8-2.2c0.6-0.2,0.9-0.6,1.1-1.2
				c0.5-1.7,1-3.5,1.7-5.1c0.5-1.2,0.3-2.3-0.3-3.3c-1.1-1.8-2.4-2-3.8-0.6c-0.4,0.4-0.7,0.7-1.1,1.1c-1.2,1.5-2.2,3.1-3,4.8
				C274.6,240.2,274.1,242.1,273.8,243.8z M259,234.1c1.2-2.5,1.8-5.1,1.9-7.7c0.1-1.4-0.4-2.6-1.1-3.8c-1-1.6-2.4-1.9-3.8-0.7
				c-2.1,1.8-2.8,4.1-2.3,6.8c0.2,1,0.5,1.9,1.2,2.7C256,232.6,257.3,233.5,259,234.1z M257.3,237.5c-2.1-0.7-3.9-1.9-5.6-3.5
				c-1,1.9-1.9,3.6-2.7,5.4c-0.7,1.5-1.2,3.2-1.4,4.9c-0.1,1.2,0.3,1.6,1.5,1.1c1-0.4,1.9-0.9,2.8-1.5c2.2-1.6,3.9-3.7,5.3-6
				C257.2,237.8,257.2,237.7,257.3,237.5z M318.8,234.1c0.6-0.1,1-0.2,1.4-0.3c1.2-0.3,2.3-0.8,3.1-1.9c0.6-0.8,0.9-1.7,0.9-2.6
				c0-0.9-0.2-1.1-1-0.8c-0.4,0.2-0.8,0.4-1.1,0.6C320.7,230.6,319.7,232.2,318.8,234.1z"/>
			<path d="M149.9,242.9c-1,0.9-2.1,1.8-3.1,2.7c-2.2,1.9-4.3,3.8-6.5,5.6c-1.4,1.2-3,2.1-4.7,2.8c-3.3,1.4-6.9-0.1-7.9-3.9
				c-0.3-0.9-0.4-1.9-0.4-2.8c-0.2-4.3,0.7-8.4,2-12.4c0.2-0.6,0.4-1.2,0.6-2c-5.8,2.4-11.6,4.2-17.9,3.7c-0.6,1.1-1.2,2.1-1.8,3.2
				c-1.1,1.7-2.1,3.4-3.3,4.9c-0.9,1.2-1.9,2.2-3,3.2c-1.1,1-2.4,1.5-3.9,1.4c-2.4-0.1-4.4-1.8-4.7-4.3c-0.1-0.9,0-1.8,0-2.9
				c-0.5,0.4-0.9,0.7-1.3,1.1c-3.9,3.5-7.9,6.9-11.8,10.4c-1,0.9-2.1,1.6-3.2,2.4c-0.8,0.6-1.7,0.8-2.7,0.8
				c-2.6,0.1-4.6-1.7-4.7-4.2c0-1.1,0.1-2.2,0.3-3.3c0.7-3.6,2.1-7,3.7-10.4c0.8-1.8,1.8-3.5,2.7-5.3c-0.1-0.1-0.3-0.2-0.6-0.2
				c-5.8-1.6-7.4-6.9-7.1-10.9c0.2-2.4,0.9-4.6,2.3-6.6c1-1.4,2.3-2.2,4.1-2.2c1.4,0.1,2.5,0.7,3.2,2c0.9,1.6,0.9,3.4,0.6,5.2
				c-0.6,3.1-2.1,5.7-4.5,7.8c-0.2,0.1-0.3,0.2-0.5,0.4c1,1,2,1.5,3.2,1.8c0.9,0.2,1.9,0.4,2.8,0.5c1.5,0.2,2.2,1.3,1.8,2.8
				c-0.2,0.8-0.5,1.5-0.8,2.2c-1.5,3.6-3,7.2-4.1,11c-0.5,1.7-0.8,3.4-1.2,5.2c0.4-0.1,0.6-0.1,0.8-0.2c0.9-0.6,1.9-1.1,2.7-1.7
				c5-4.2,10-8.4,15-12.6c0.4-0.4,0.8-0.9,1.1-1.4c1.4-2.6,2.9-5,5.1-7.1c-0.5-1.5-0.6-3-0.2-4.5c0.7-2.9,2.4-5.2,5-6.8
				c2.3-1.4,5-0.9,6.6,1.3c1,1.3,1.5,2.7,1.5,4.4c0,3-0.6,5.9-1.5,8.7c-0.1,0.3-0.2,0.5-0.3,0.8c0,0.1,0,0.1,0,0.3
				c1.9,0.3,3.7,0.5,5.6,0.1c3.6-0.8,7.2-1.8,10.7-3c0.7-0.2,1-0.6,1.3-1.3c1.9-5.7,4.3-11.1,6.6-16.6c2.3-5.5,4.7-11,7.5-16.3
				c2.5-4.7,5.2-9.4,7.9-14c1.6-2.7,3.6-5,6.1-6.9c1.3-1,2.7-1.9,4.4-2.1c2.7-0.4,4.5,1.1,4.9,3.8c0.2,1.4-0.1,2.8-0.3,4.2
				c-0.3,2.2-1,4.2-1.9,6.2c-3.5,7.1-7.6,14-12.4,20.4c-1.9,2.5-3.8,5-5.8,7.4c-2,2.4-4.3,4.4-6.9,6.2c-0.6,0.4-0.9,0.9-1.2,1.5
				c-2.4,5.9-4.4,12-5.8,18.3c-0.4,1.9-0.6,3.8-0.9,5.6c-0.1,0.8,0,1.6,0.1,2.3c0.1,0.8,0.4,0.9,1.1,0.8c0.8-0.2,1.7-0.4,2.4-0.8
				c1.6-0.9,3.3-1.8,4.8-2.9c2.9-2.1,5.6-4.4,8.4-6.6c0.4-0.3,0.6-0.7,0.7-1.2c1.2-3.6,2.8-7,5.3-9.8c0.8-0.9,1.8-1.8,2.8-2.5
				c0.7-0.5,1.6-0.9,2.5-1.1c2.9-0.8,5,1.3,4.9,4.2c-0.1,1.6-0.7,2.9-1.8,4c-1.3,1.4-3,2.1-4.9,2.3c-0.5,0.1-1.1-0.1-1.7-0.1
				c-0.3,1.3-0.8,2.6-1,3.9c-0.3,1.8-0.5,3.7-0.6,5.6c-0.1,0.8,0.1,1.6,0.4,2.4c0.6,1.8,1.9,2.4,3.7,1.8c1.4-0.4,2.7-1,3.8-1.9
				c1.7-1.4,3.4-2.9,5.1-4.4c4.2-3.9,8.2-8,11.7-12.6c0.1-0.1,0.2-0.2,0.3-0.3c0.4-0.4,0.8-0.5,1.2-0.2c0.4,0.3,0.5,0.7,0.2,1.3
				c-0.2,0.4-0.5,0.7-0.7,1.1c-1.4,1.7-2.7,3.4-4.1,5.1c-2,2.4-4,4.9-6.1,7.3c-2,2.4-4.1,4.7-6.7,6.6c-1,0.7-2.1,1.4-3.2,2
				c-1.8,1-3.8,1.3-5.8,0.9c-2.7-0.5-4.5-2.2-5.6-4.8c-0.7-1.8-0.7-3.6-0.6-5.4c0-0.2,0-0.4,0-0.6C150.1,243,150,243,149.9,242.9z
				 M142.1,218c0.1,0,0.1,0.1,0.2,0.1c0.4-0.3,0.8-0.7,1.1-1c1.8-2.1,3.7-4,5.3-6.2c4.6-6.2,8.8-12.8,12.2-19.8
				c1.6-3.4,3.2-6.8,4.1-10.5c0.2-1,0.4-2.1,0.2-3.1c-0.2-0.9-0.5-1.1-1.3-0.7c-0.7,0.3-1.3,0.7-1.9,1.2c-2.6,2.2-4.5,5-5.9,8.1
				c-2,4.2-3.8,8.5-5.7,12.8c-2.6,6-5.2,12.1-7.9,18.2C142.4,217.2,142.3,217.6,142.1,218z M111.5,233c0.8-2,1.2-4,1.4-6
				c0.1-1.2,0.1-2.4-0.2-3.5c-0.3-1.2-1-2-2-2.6c-0.4-0.3-0.9-0.3-1.3-0.1c-2.3,1.1-3.9,4.5-3.3,6.9
				C106.8,230.5,108.9,231.9,111.5,233z M109.9,236.1c-2.1-0.7-3.8-1.9-5.4-3.3c-0.1,0.2-0.2,0.4-0.3,0.6c-0.7,1.7-1.4,3.4-2,5.1
				c-0.7,1.8-1.2,3.8-1.4,5.7c0,0.4-0.2,1,0.3,1.2c0.3,0.1,0.8-0.1,1.1-0.2c0.4-0.1,0.7-0.4,1-0.6c0.8-0.7,1.7-1.3,2.3-2.1
				c1.4-1.8,2.6-3.6,3.9-5.4C109.6,236.8,109.7,236.5,109.9,236.1z M74.9,227.8c2.4-2.2,4-4.6,4.4-7.8c0.1-1-0.1-2-0.6-3
				c-0.7-1.4-2-1.5-3-0.4c-0.7,0.8-1.2,1.8-1.4,2.8c-0.4,1.6-0.5,3.2-0.4,4.7C74,225.5,74.2,226.7,74.9,227.8z M159,233.4
				c0.1,0.1,0.2,0.2,0.2,0.2c0.1,0,0.3,0.1,0.4,0c1.1-0.1,2.1-0.6,2.9-1.3c0.9-0.8,1.3-1.8,1.4-3c0-0.5-0.1-1.1-0.6-1.3
				c-0.5-0.3-0.9,0.2-1.2,0.5C160.6,229.8,159.8,231.6,159,233.4z"/>
		</g>
		<g>
			<path class="st4" d="M88.6,127.6c0,0-17.3,0-17.3,0c-0.5,0.2-0.6,0.8-0.6,1.3c0,0,0.1,30.9,0.1,30.9c0.1,0.5,0.5,0.8,1,0.8
				c0.1,0,0.2,0,0.3,0c2.2-0.5,4.5-0.7,8.6-0.6h0.7c3.2,0,4.9,0,6.9-0.2c0.6,0,1-0.5,1-1.2c-0.1-0.5-0.5-0.9-1.2-0.9c0,0,0,0,0,0
				c-1.4,0.2-3.7,0.2-6.7,0.2h-0.7c-1.3,0-2.4,0-3.2,0c-0.7-2.3-0.7-6.9-0.6-13.5c2,0,4.5-0.1,7.7-0.5c0.6-0.1,1-0.6,0.9-1.2
				c-0.1-0.5-0.5-0.9-1.2-0.9c-3,0.4-5.4,0.5-7.3,0.5c0-0.1,0-0.2,0-0.3l0-2.9c0-1.9,0-3.4,0-4.4c0-1.8-0.1-3.5-0.2-4.9
				c0.9,0,2,0,3.3,0c3.7-0.1,6.6-0.1,8.4-0.1c0.6,0,1-0.4,1-1C89.6,128,89.1,127.6,88.6,127.6z M72.9,129.8h1.8
				c0.1,1.3,0.2,3,0.2,4.8c0,1,0,2.5,0,4.5l0,2.8c0,0.5,0,0.8,0,1.1c-0.1,7.4-0.1,11.9,0.5,14.6h-0.1c-0.2,0-0.5,0-0.6,0l-0.1,0
				c-0.7,0-1.2,0-1.6,0.1C73.4,150.8,73.5,136.6,72.9,129.8z"/>
			<path class="st4" d="M118.1,126.9c-0.4,0-0.7,0.3-0.8,0.6c-1.4,2.8-2.7,6.2-3.9,10l-0.4,1.1c-0.3,1.1-0.8,2.6-1.4,4.5
				c-1.8,5.8-3,9.6-4.8,13.3l-0.1-0.3c-1.2-2.4-2.6-6.9-4.5-13.8c-0.4-1.3-2.1-8-2.2-8.5c-0.8-2.8-1.4-5.1-1.9-6.4
				c-0.1-0.4-0.4-0.5-0.5-0.6c-0.2-0.1-0.4-0.1-0.8,0l-0.1,0c-0.5,0-1.2-0.1-2,0l-0.4,0c-0.7,0-1.2,0-1.5,0c-2,0-0.7,2.3,0.2,5.4
				l0.8,2.5c0.1,0.3,0.3,1.1,0.4,1.4l0.1,0.4c0.2,0.5,0.3,1,0.5,1.4l0.2,0.7c0.4,1.3,0.7,2.4,1.1,3.5c0.3,1.1,0.9,2.9,1.6,5.3l0,0.1
				l0,0c0,0.1,0.1,0.2,0.1,0.4l0.1,0.4c0.1,0.6,0.3,1,0.3,1.1c3,10.7,3.1,10.7,4,10.7c0.3,0,0.8,0,1.3,0l0.8,0l0.1,0
				c0.1,0,0.1,0,0.1,0c0.8-0.1,1.7-0.1,2.2-0.1l0,0c1.9,0,6.5-15.4,6.7-16.2c0.8-2.6,1.4-4.5,1.7-5.5c1.2-3.9,2.5-7.1,3.8-9.7
				c0.2-0.4,0.2-0.7-0.1-1C118.9,127.1,118.5,126.9,118.1,126.9z M105.3,157.9c-0.1,0-0.2,0-0.3,0l-0.4,0c-0.1,0-0.2,0-0.3,0
				c-0.2,0-0.4,0-0.6,0c-0.1,0-0.2,0-0.3,0c-0.8-2-1.8-5.1-3-9.2c0-0.1-0.2-0.5-0.3-1.1l-0.1-0.4c-0.1-0.3-0.1-0.5-0.2-0.6
				c-0.5-1.9-1-3.4-1.3-4.6l-0.2-0.7c-0.2-0.6-0.4-1.3-0.6-1.9c-0.2-0.6-0.4-1.2-0.6-1.8c-0.1-0.3-0.2-0.6-0.3-1
				c-0.1-0.3-0.2-0.5-0.3-0.8l-0.1-0.4c-0.2-0.6-0.4-1.2-0.4-1.4l-0.5-1.5c-0.3-1-0.6-1.9-0.9-2.8l-0.3-1.1l0.6,0c0.6,0,1.2,0,1.7,0
				c0.4,1.2,0.9,2.9,1.6,5.4c0.1,0.6,1.9,7.3,2.2,8.5c1.8,7,3.4,11.7,4.6,14.3C105,157.3,105.1,157.6,105.3,157.9z"/>
			<path class="st4" d="M140.8,127.6c-12.8,0-17.8-0.4-17.9,0.8c-0.1,0.3-0.1,0.7,0.1,1c0.6,6.4,0.5,22.7-0.2,29.2
				c-0.1,0.6,0.2,1.9,1.1,1.9c0.1,0,0.2,0,0.3,0c2.2-0.5,4.5-0.7,8.6-0.6h0.7c3.2,0,4.9,0,6.9-0.2c0.6,0,1-0.5,1-1.2
				c-0.1-0.5-0.5-0.9-1.2-0.9c0,0,0,0,0,0c-1.4,0.2-3.7,0.2-6.7,0.2H133c-1.3,0-2.4,0-3.2,0c-0.7-2.3-0.7-6.9-0.6-13.5
				c2,0,4.5-0.1,7.7-0.5c0.6-0.1,1-0.6,0.9-1.2c-0.1-0.5-0.5-0.9-1.2-0.9c0,0,0,0,0,0c-3,0.4-5.4,0.5-7.3,0.5c0-0.1,0-0.2,0-0.3
				l0-2.9c0-1.9,0-3.4,0-4.4c0-1.8-0.1-3.5-0.2-4.9c0.9,0,2,0,3.3,0c3.7-0.1,6.6-0.1,8.4-0.1c0.6,0,1-0.4,1-1
				C141.9,128,141.4,127.6,140.8,127.6z M125.2,129.8h1.8c0.1,1.3,0.2,3,0.2,4.8c0,1,0,2.5,0,4.5l0,2.8c0,0.5,0,0.8,0,1.1
				c-0.1,7.4-0.1,11.9,0.5,14.6h-0.1c-0.2,0-0.5,0-0.6,0l-0.1,0c-0.7,0-1.2,0-1.6,0.1C125.6,150.8,125.8,136.6,125.2,129.8z"/>
			<path class="st4" d="M169.7,133.2c-1.4-2.5-4.7-4.8-8.6-6c-4.6-1.5-9.5-1.6-14.6-0.5l0,0c-0.4,0.1-0.7,0.4-0.8,0.8
				c0,0,0.3,5,0.3,5c0,0.3,0.1,0.7,0.1,1.3c0.1,0.8,0.1,1.5,0.2,1.9l0,0.4c0.2,2.9,0.1,7-0.2,12.5c-0.4,3.9-0.4,8.9-0.4,8.9
				c0.1,2.9,3.9,2,4.9,1.5c1.9-1,1.2-12.6,1.1-14.8c6,0,9.6,1.4,11.5,2.8c2.7,2,4.3,5.4,5.1,11c0,0.3,0.1,0.5,0.3,0.7
				c0.2,0.2,0.5,0.3,0.9,0.2c0.6-0.1,0.9-0.6,0.8-1.2c-0.4-3.1-1.1-5.6-2.1-7.6c-1.6-3.3-3.9-5.4-7.6-6.7c2.9-0.5,5.3-1.4,6.9-2.5
				C170.6,139,171.4,136,169.7,133.2z M147.9,157.3c0-0.1,0-0.3,0-0.5l0-0.6c0-0.3,0-0.6,0-0.6l0.3-4.7c0-0.5,0.1-1,0.1-1.4
				c0-0.3,0-0.5,0.1-0.8c0.3-5.6,0.4-9.7,0.2-12.7l0-0.4c0-0.5-0.1-1.2-0.2-2.1c0-0.6-0.1-1-0.1-1.3c-0.2-1.6-0.2-2.8,0-3.8
				c0.5-0.1,0.9-0.1,1.4-0.2c-0.5,3.6-0.4,7.7,0,13.2c0,0.2,0,0.4,0,0.7c0,0.2,0,0.5,0,0.7c0.5,7.5,0.6,11.2,0,14.4
				C148.9,157.3,148.3,157.3,147.9,157.3z M160.5,129.2c1.8,0.6,3.3,1.3,4.7,2.2c0.8,0.6,3.5,2.5,3.5,4.7c0,1.1-0.7,2.2-2.1,3.1
				c-3.4,2.4-9.5,3-15,2.5c0,0,0,0,0-0.1c0-0.2,0-0.4,0-0.5c-0.4-5.4-0.5-9.4,0-12.9c0-0.1,0-0.2,0-0.3
				C154.7,127.9,157.7,128.3,160.5,129.2z"/>
			<path class="st4" d="M195.4,127.5c-0.4,0.1-0.7,0.3-0.8,0.7c-1.1,3.2-3,6.3-6,10.8l-1,1.5c-0.7,1-1.3,2-2,3
				c-0.2-0.3-0.4-0.7-0.7-1.1c-0.7-1.1-1.6-2.5-2.6-4.2c-0.1-0.1-0.1-0.1-0.1-0.2c0,0-0.1-0.1-0.1-0.1c-2.8-4.6-4.4-7.2-6.5-9.9
				c-0.2-0.3-0.5-0.5-0.8-0.5c-0.4,0-0.7,0.3-0.9,0.6c-0.2,0.3-0.1,0.7,0.1,1c2,2.8,3.8,5.5,6.4,9.9l0.2,0.3
				c0.7,1.2,1.4,2.3,1.9,3.1c0.3,0.6,0.6,1.1,0.9,1.5c0,1-0.1,2.7-0.2,5.2c0,0.4,0,0.7,0,1c0,0.4,0,0.7,0,1c-0.1,3.3-0.1,5.7,0,7.3
				v0.2c0,0.5,0.3,0.9,0.7,1c0.2,0.1,0.3,0.1,0.4,0.1c0.4,0,0.9,0,1.5,0l0.3,0c0.2,0,0.5,0,0.6,0c0.2,0,0.4,0,0.5,0
				c0.1,0,0.2,0.1,0.3,0.1c0.1,0,0.2,0,0.3,0c0.3-0.1,0.5-0.2,0.6-0.4c0.2-0.2,0.2-0.5,0.2-0.8c-0.4-2.2-0.4-4.2-0.2-7.3l0-0.4
				c0.2-3,0.2-5.1-0.1-7.4l0-0.1l0.1-0.2c0.3-0.4,0.6-0.9,1-1.5l0,0c0.2-0.2,0.5-0.7,1-1.5c3-4.5,5-7.8,6.1-11.3
				c0.2-0.4,0.1-0.7-0.1-1C196.2,127.5,195.8,127.4,195.4,127.5z M186.4,151.2c-0.1,2.7-0.2,4.6,0.1,6.5c-0.1,0-0.1,0-0.2,0h0
				c-0.1,0-0.2,0-0.2,0c-0.3,0-0.5,0-0.8,0c-0.1-1.6-0.1-3.7,0-6.3c0-0.3,0-0.6,0-1.1c0-0.3,0-0.6,0-1c0.1-0.9,0.1-1.8,0.1-2.5
				c0.1,0,0.2,0,0.3,0c0.3,0,0.5-0.1,0.7-0.2c0,1.1,0,2.4-0.1,4.5L186.4,151.2z"/>
			<path class="st4" d="M222,129.5c-4.9-4.9-21.4-4-23.7,11.3c-1.1,8.1,3,15.4,9.6,16.9c6,1.3,12.6,0.5,16.4-4.3
				C230.9,145.1,226.4,134.1,222,129.5z M225.1,145.5c-0.6,8.9-9.8,14.3-17.6,6.5c-3.7-3.7-4.7-8.6-2.9-13.4
				c2.1-5.3,10.6-13.4,15.9-7.6C224.5,134.8,225.5,138.4,225.1,145.5z M202.7,137.9c-2.2,5.5-1,11.4,3.3,15.6c0.9,0.9,1.6,1.5,2.3,2
				c-5.6-1.3-8.9-7.4-7.9-14.5c0.8-5.6,4.1-9.8,8.9-11.4C206.3,131.8,204,134.6,202.7,137.9z"/>
			<path class="st4" d="M256.5,128.9c0-0.1,0-0.2,0-0.3c0-0.1,0-0.2,0-0.2c0-0.1,0-0.1,0-0.2c0.3-2.3-6.3-1-6.3,0.1
				c0,0.9,0.7,18.6,1.3,27.2c-1.2-1.8-2.7-4.7-4.6-8.7l-0.3-0.7c-0.2-0.5-0.5-1.1-0.8-1.8l-0.1-0.2c-0.3-0.7-0.6-1.4-0.8-1.9
				l-0.4-0.9c-1.4-3.1-6.6-14.1-10.1-14.3l-0.6,0c-1.2-0.1-2-0.1-2.4-0.1c-0.3,0-0.6,0.1-0.8,0.3c-0.2,0.2-0.3,0.5-0.2,0.7l0,0.1
				c0,0.1-0.1,0.2-0.1,0.4c0,1.8,0,5,0.1,9.3c0,1,0,1.8,0,2.6c0,1,0,1.9,0,2.6c0.1,6.5,0,11.7-0.3,15.6c0,1.2,6.8,1.5,6.6-0.2
				c-0.1-1.7-0.2-3-0.3-7.6c-0.2-7.1-0.2-12.3,0-16.4c0.1-1.2,0.2-2.1,0.2-2.9c0.3,0.4,0.5,0.8,0.8,1.3l0.1,0.2
				c2.7,4.2,3.3,5.3,5.1,9.4l0.1,0.2c0.1,0.3,0.3,0.9,0.7,1.5c0.1,0.2,0.2,0.5,0.3,0.7l0.1,0.3c0.1,0.4,0.3,0.7,0.5,1
				c0.1,0.2,0.2,0.4,0.3,0.6c0.1,0.1,0.1,0.2,0.2,0.3c0.1,0.1,0.1,0.2,0.1,0.3c0.1,0.2,0.1,0.3,0.2,0.4c1.9,4.2,3.9,7.4,5.1,9.5
				c1.4,2.4,6.7,1.9,6.7,1C257.3,154.6,255.1,139.5,256.5,128.9z M254.1,142.5c0,0.7,0.1,1.5,0.1,2.6c0,0.8,0.1,1.6,0.2,2.6
				c0.3,4.5,0.4,7.5,0.4,9.3c-0.3,0-0.6,0-0.9,0c-0.8-10-1.2-19.1-1.2-27.8c0.6,0,1.2,0,1.7,0.1C254,133,253.9,137.5,254.1,142.5z
				 M234.6,150.8l0.1,6.6h-0.1c-0.3,0-0.6,0-0.8,0c-0.6,0-1,0-1.3-0.1c0.2-3.5,0.3-8.3,0.2-14.4c0-0.7,0-1.6,0-2.6
				c0-0.8,0-1.6,0-2.6c-0.1-3.9-0.1-6.9-0.1-8.8c0.3,0,0.8,0.1,1.3,0.1l0.6,0c0.2,0,0.5,0,0.6,0c-0.3,1.4-0.5,3.1-0.6,5.1
				C234.3,138.4,234.3,143.6,234.6,150.8z"/>
			<path class="st4" d="M278.7,129.6c0.6,0,1-0.4,1-1c0-0.6-0.5-1-1-1c0,0-17.3,0-17.3,0c-0.3,0.1-0.5,0.5-0.5,0.9
				c0,0.1-0.1,0.2-0.1,0.4c0,0.9-0.5,31.7,1.1,31.7c0.1,0,0.2,0,0.3,0c2.2-0.5,4.5-0.7,8.6-0.6h0.7c3.2,0,4.9,0,6.9-0.2
				c0.6,0,1-0.5,1-1.2c-0.1-0.5-0.5-0.9-1.2-0.9c0,0,0,0,0,0c-1.4,0.2-3.7,0.2-6.7,0.2h-0.7c-1.3,0-2.4,0-3.2,0
				c-0.7-2.3-0.7-6.9-0.6-13.5c2,0,4.5-0.1,7.7-0.5c0.6-0.1,1-0.6,0.9-1.2c-0.1-0.5-0.5-0.9-1.2-0.9c0,0,0,0,0,0
				c-3,0.4-5.4,0.5-7.3,0.5c0-0.1,0-0.2,0-0.3l0-2.9c0-1.9,0-3.4,0-4.4c0-1.8-0.1-3.5-0.2-4.9c0.9,0,2,0,3.3,0
				C274,129.7,276.8,129.6,278.7,129.6z M263,129.8h1.8c0.1,1.3,0.2,2.9,0.2,4.8c0,1,0,2.5,0,4.5l0,2.8c0,0.5,0,0.8,0,1.1
				c-0.1,7.4-0.1,11.9,0.5,14.6h-0.1c-0.2,0-0.5,0-0.6,0l-0.1,0c-0.7,0-1.2,0-1.6,0.1C263.5,150.8,263.6,136.6,263,129.8z"/>
		</g>
		<g>
			<path class="st4" d="M196.6,200.9L196.6,200.9c-0.3,0.3-0.6,0.4-0.9,0.4c-0.5,0-0.5-0.1-0.7-0.5c-0.5-0.7-1-1.4-1.4-2.2
				c-0.7-1.3-1.4-2.5-2-3.6c-0.5-0.8-0.9-1.7-1.3-2.5c-1.2-2.6-2.6-5.1-3.9-7.7c0,0.3,0,0.5,0,0.8c0,0.8,0.1,1.7,0.1,2.5
				c0,3,0.2,6,0.3,9c0,0.9,0.1,1.7,0.1,2.5c0,0.3,0,0.5,0,0.8c-0.1,0.4-0.1,0.9-0.6,0.9c-0.6,0.1-0.9,0-1.2-0.5
				c-0.1-0.3-0.2-0.6-0.2-0.9c-0.2-1.6-0.2-3.3-0.3-5c-0.1-2.5-0.1-5.1-0.2-7.7c0-1.3-0.1-2.6-0.1-4c0-0.7,0-1.4,0-2v-1.5
				c0-0.4,0-0.8,0.5-1c0.5-0.2,1,0,1.3,0.4c0.3,0.4,0.7,0.7,0.9,1.2c0.3,0.5,0.5,1,0.8,1.5c0.5,1,1,2,1.6,3c1.3,2.5,2.5,5.1,3.8,7.6
				c0.6,1.2,1.3,2.5,1.9,3.7c-0.1-1.4-0.3-2.7-0.4-4c-0.2-1.6-0.3-3.3-0.3-5c0-1.2-0.2-2.5-0.1-3.9l0.2-3.9c0.2-0.5,0.5-0.7,1.1-0.6
				c0.5,0.1,0.7,0.3,0.8,1c0.1,1.4,0.1,2.7,0.2,4c0.2,2.4,0.2,4.7,0.3,7c0.1,2.5,0.2,5.1,0.3,7.7v1.7
				C196.8,200.4,196.8,200.7,196.6,200.9C196.6,200.9,196.6,200.9,196.6,200.9z"/>
			<path class="st4" d="M200.6,180.2c0.2,1.1,0.2,2.3,0.3,3.5c0,0.7,0,1.5,0,2.2c0,0.4,0.1,0.5,0.5,0.5c0.5,0,1,0,1.5,0.1h0.2
				c0.2,0,0.5,0.1,0.5,0.4c0,0.2-0.3,0.3-0.5,0.4c-0.4,0-0.8,0.1-1.3,0.1c-0.9,0-0.9,0-0.9,0.9c-0.2,2.7-0.2,5.3-0.3,8
				c0,1-0.1,2.1-0.2,3.1c0,0.3,0,0.6,0.1,1c1.1-0.2,2.2-0.2,3.3-0.3c0.6-0.1,1.3,0,1.9,0.1c0.2,0,0.4,0.1,0.4,0.3
				c0,0.2-0.2,0.3-0.3,0.4c-0.5,0.1-1,0.2-1.5,0.2c-1.5,0.1-2.9,0.4-4.3,0.4c-1.1,0-1.4-0.2-1.7-1.4c-0.1-0.3-0.1-0.5-0.1-0.9
				c-0.1-2.7-0.2-5.4-0.2-8.1c0-1.3,0.1-2.7,0.2-4c0.1-2,0-4.1,0.3-6.2c0.2-1.4,0-1.7,1.8-1.8c1.9-0.1,3.8,0,5.6,0.1
				c0.3,0,0.7,0,0.9,0.4c0,0.2-0.3,0.4-0.8,0.4c-1.5,0-3,0-4.5,0C201.2,180.2,200.9,180.1,200.6,180.2z"/>
			<path class="st4" d="M210.5,180.2c0.2,1.1,0.2,2.3,0.3,3.5c0,0.7,0,1.5,0,2.2c0,0.4,0.1,0.5,0.5,0.5c0.5,0,1,0,1.5,0.1h0.2
				c0.2,0,0.5,0.1,0.5,0.4c0,0.2-0.3,0.3-0.5,0.4c-0.4,0-0.8,0.1-1.3,0.1c-0.9,0-0.9,0-0.9,0.9c-0.2,2.7-0.2,5.3-0.3,8
				c0,1-0.1,2.1-0.2,3.1c0,0.3,0,0.6,0.1,1c1.1-0.2,2.2-0.2,3.3-0.3c0.6-0.1,1.3,0,1.9,0.1c0.2,0,0.4,0.1,0.4,0.3
				c0,0.2-0.2,0.3-0.3,0.4c-0.5,0.1-1,0.2-1.5,0.2c-1.5,0.1-2.9,0.4-4.3,0.4c-1.1,0-1.4-0.2-1.7-1.4c-0.1-0.3-0.1-0.5-0.1-0.9
				c-0.1-2.7-0.2-5.4-0.2-8.1c0-1.3,0.1-2.7,0.2-4c0.1-2,0-4.1,0.3-6.2c0.2-1.4,0-1.7,1.8-1.8c1.9-0.1,3.8,0,5.6,0.1
				c0.3,0,0.7,0,0.9,0.4c0,0.2-0.3,0.4-0.8,0.4c-1.5,0-3,0-4.5,0C211.1,180.2,210.8,180.1,210.5,180.2z"/>
			<path class="st4" d="M217.8,190.7c-0.1-3.1,0-5.9,0.1-8.6l0.1-1.2c0.1-0.5,0.2-0.7,0.7-0.8c0.9-0.1,1.8-0.2,2.7-0.3
				c4.5-0.1,7.7,2,9.5,6.2c0.6,1.5,1,3,1,4.6c0,0.6-0.1,1.3-0.3,1.9c-0.8,2.8-2.2,5.4-4.8,7c-2,1.2-4.1,2-6.5,1.9
				c-0.5,0-1-0.1-1.5-0.1c-0.4,0-0.6-0.3-0.7-0.7c-0.2-0.8-0.2-1.6-0.2-2.4C217.8,195.6,217.7,193,217.8,190.7z M220.3,180.8
				c0.9,6.5,0.3,13,0,19.6c1.8-0.2,3.4-0.8,4.8-1.8c2.1-1.5,3.2-3.7,3.9-6.1c0.3-0.9,0.4-1.9,0.2-2.9c-0.1-1.1-0.4-2.2-0.8-3.2
				c-0.4-0.9-0.8-1.7-1.4-2.5C225.4,181.4,223.2,180.5,220.3,180.8z"/>
			<path class="st4" d="M238.7,201.4c-2.2,0.2-4.4-2.2-4.1-4.7c0-0.4,0.2-0.5,0.6-0.5c0.5,0,0.5,0,0.6,0.5c0.1,1.3,0.6,2.4,1.6,3.1
				c0.1,0.1,0.3,0.2,0.4,0.3c0.5,0.3,1,0.3,1.5,0c1.3-1,1.9-2.4,1.5-4c-0.6-2.5-1.9-4.6-3.9-6.2c-0.6-0.5-1.3-1-1.9-1.5
				c-0.9-0.7-1.6-1.5-1.8-2.7c-0.1-0.5-0.1-1.1,0-1.7c0.2-1.4,0.7-2.6,1.5-3.8c1.2-1.8,3.7-2,5.2-1c0.4,0.2,0.6,0.5,0.9,0.8
				c0.4,0.6,0.7,1.3,0.8,2c0.1,0.6,0,0.8-0.4,0.9c-0.5,0.1-0.8,0-1-0.5c-0.1-0.5-0.3-1-0.5-1.5c-0.1-0.3-0.3-0.6-0.6-0.9
				c-0.9-0.8-1.9-0.7-2.5,0.4c-0.8,1.7-1,3.5-0.4,5.3c0.3,0.9,1,1.5,1.7,2.1c0.8,0.6,1.6,1.2,2.4,1.9c1.7,1.9,2.7,4,3,6.5
				C243.8,198.6,241.5,201.7,238.7,201.4z"/>
			<path class="st4" d="M261.9,191.8c-1,0-2.1,0.1-3.2,0.2c-0.3,0-0.5,0.1-0.6,0.5c-0.6,1.5-1,3.1-1.6,4.6l-1.1,3.3
				c-0.2,0.5-0.5,0.7-1,0.7c-0.6,0-0.8-0.2-0.6-0.8c0.4-1.6,0.7-3.2,1.2-4.7c0.7-2.4,1.7-4.7,2.5-7c0.8-2.5,1.5-5,2.1-7.5
				c0.2-0.6,0.4-1.1,0.6-1.7c0.5-1,2-1.2,2.6-0.3c0.5,0.5,0.7,1.2,0.9,1.9c0.2,0.8,0.4,1.5,0.5,2.3c0.9,3.9,2,7.6,3.1,11.5
				c0.5,1.8,1,3.6,1.4,5.4c0,0,0,0.1,0,0.2c0.1,0.6,0,0.9-0.3,1.1c-0.4,0.2-1.1,0.1-1.4-0.2c-0.3-0.3-0.4-0.7-0.5-1
				c-0.7-2.5-1.4-5-2.1-7.5c-0.2-0.7-0.2-0.7-1-0.7H261.9z M259.2,191c1.2-0.2,2.4-0.2,3.5-0.2c1.1,0,1.1,0,0.9-1.1
				c-0.7-2.5-1.5-5-2-7.5c0-0.1-0.1-0.1-0.2-0.1c-1,2.9-1.5,5.9-2.7,8.9H259.2z"/>
		</g>
	</g>
	<g>
		<path d="M153.4,289c0.2,0.3,0.3,0.5,0.4,0.6c0.3,0.5,0.6,0.9,0.9,1.4c1.9,3.2,1.6,6.4-0.4,9.3c-2.5,3.5-5.9,5.5-10.3,5.7
			c-3.4,0.2-6.2-1.3-8.3-3.8c-1.7-2.1-1.9-4.6-0.7-7c1-2,2.6-3.6,4.4-4.8c1.3-0.9,2.7-1.6,4.1-2.4c0.3-0.2,0.6-0.3,1.1-0.5
			c-0.4-0.2-0.7-0.3-1.1-0.5c-2.5-0.9-5-1.3-7.6-1.6c-4.8-0.5-9.6,0.4-14.3,1.3c-6.1,1.2-11.9,3.5-17.5,6.1
			c-4.8,2.2-9.5,4.5-14.3,6.6c-5.2,2.3-10.5,4.3-16,5.6c-3,0.7-6.1,1.1-9.2,0.9c-1.8-0.1-3.5-0.5-5.2-1.1c-5.1-1.9-6.4-6.9-5.3-10.8
			c0.6-2,1.6-3.6,3.3-4.8c0.6-0.5,1.3-0.8,2.1-0.9c0.8-0.1,1.5,0.1,2,0.8c0.1,0.2,0.2,0.6,0.1,0.8c-0.1,0.2-0.5,0.3-0.7,0.2
			c-1-0.3-1.6,0.2-2.3,0.8c-2.3,2.1-2.9,5.9-1.4,8.7c0.7,1.2,1.6,1.9,2.9,2.3c2.2,0.8,4.5,1.1,6.9,0.9c5.7-0.5,11.2-2.3,16.4-4.5
			c5.1-2.2,10.1-4.6,15.2-6.9c4.9-2.3,9.9-4.5,15.1-6.2c5.7-1.9,11.5-3.1,17.5-3.4c4.6-0.3,9.2,0.3,13.6,1.7
			c1.6,0.5,3.1,1.2,4.5,2.1c0.4,0.3,0.8,0.4,1.4,0.3c5.6-0.8,11.1-0.4,16.4,1.9c3.5,1.5,6.7,3.5,9,6.6c0.2,0.3,0.4,0.6,0.6,1
			c0.2,0.5,0.1,1-0.2,1.4c-0.4,0.4-0.9,0.6-1.4,0.4c-0.4-0.2-0.8-0.4-1.1-0.7c-4-4.5-9.1-6.7-14.9-7.5c-1.5-0.2-3-0.1-4.6-0.1
			C154.2,288.8,153.8,288.9,153.4,289z M143.7,302.3c3.2-0.2,5.7-1.7,7.3-4.5c1-1.7,1.1-3.5,0-5.2c-0.6-0.9-1.2-1.6-1.9-2.5
			c-0.2-0.3-0.5-0.4-0.9-0.2c-3.1,1.1-6,2.5-8.3,4.9c-0.6,0.6-1,1.3-1.4,2.1c-0.5,1-0.4,2.1,0.3,2.9
			C140.1,301.4,141.7,302.3,143.7,302.3z"/>
		<path class="st23" d="M185.8,286.8c0.4-0.5,0.7-0.9,1.1-1.3c1-1,2.1-1.8,3.6-2c1.6-0.3,2.9,0.2,3.9,1.4c1,1.2,1.2,2.6,0.6,4
			c-0.3,0.7-0.7,1.4-1.1,2c-2.1,2.9-4.4,5.7-7,8.2c-0.2,0.2-0.4,0.4-0.7,0.6c-0.4,0.3-0.9,0.3-1.4,0c-0.6-0.4-1.2-0.8-1.7-1.3
			c-2.1-1.9-4-3.9-5.4-6.3c-0.5-0.9-0.9-1.9-1.1-2.9c-0.3-1.5,0.1-2.9,0.9-4.2c1-1.5,2.5-2,4.3-1.4c1.4,0.5,2.4,1.4,3.3,2.5
			C185.5,286.3,185.6,286.5,185.8,286.8z M185.8,296.6c0.5-0.7,0.9-1.2,1.4-1.8c1.4-1.7,2.8-3.3,4.1-5c0.5-0.6,0.9-1.3,1.3-2
			c0.7-1.4-0.3-2.7-1.8-2.5c-0.6,0.1-1.3,0.4-1.8,0.7c-1.3,0.9-2.4,2.1-2.6,3.8c0,0.5-0.3,0.8-0.8,0.8c-0.5,0-0.7-0.3-0.8-0.7
			c-0.2-0.5-0.4-1-0.6-1.5c-0.5-1.2-1.4-2.1-2.7-2.7c-0.9-0.4-1.4-0.2-1.7,0.7c-0.5,1.3-0.2,2.4,0.5,3.5
			C181.7,292.5,183.6,294.5,185.8,296.6z"/>
		<path d="M277.4,288.8c-1.5,0-3.1-0.1-4.6,0.1c-5.8,0.8-11,3-14.9,7.5c-0.3,0.3-0.7,0.6-1.1,0.7c-0.5,0.2-1,0-1.4-0.4
			c-0.4-0.4-0.5-0.9-0.2-1.4c0.2-0.3,0.4-0.7,0.6-1c2.3-3.1,5.5-5.1,9-6.6c5.3-2.3,10.8-2.7,16.4-1.9c0.5,0.1,0.9,0,1.4-0.3
			c1.4-0.9,2.9-1.6,4.5-2.1c4.4-1.5,9-2,13.6-1.7c6,0.4,11.8,1.5,17.5,3.4c5.2,1.7,10.1,4,15.1,6.2c5.1,2.3,10.1,4.7,15.2,6.9
			c5.3,2.3,10.7,4,16.4,4.5c2.4,0.2,4.7-0.1,6.9-0.9c1.2-0.4,2.2-1.2,2.9-2.3c1.5-2.7,0.9-6.6-1.4-8.7c-0.6-0.6-1.3-1.1-2.3-0.8
			c-0.2,0.1-0.6-0.1-0.7-0.2c-0.1-0.2-0.1-0.6,0.1-0.8c0.5-0.7,1.2-0.9,2-0.8c0.8,0.1,1.5,0.4,2.1,0.9c1.7,1.2,2.7,2.8,3.3,4.8
			c1.2,4-0.1,9-5.3,10.8c-1.7,0.6-3.4,1-5.2,1.1c-3.1,0.2-6.1-0.2-9.2-0.9c-5.6-1.3-10.9-3.2-16-5.6c-4.8-2.2-9.5-4.4-14.3-6.6
			c-5.6-2.6-11.4-4.9-17.5-6.1c-4.7-0.9-9.4-1.8-14.3-1.3c-2.6,0.2-5.1,0.7-7.6,1.6c-0.3,0.1-0.6,0.3-1.1,0.5
			c0.5,0.2,0.8,0.3,1.1,0.5c1.4,0.8,2.8,1.5,4.1,2.4c1.8,1.2,3.4,2.8,4.4,4.8c1.3,2.5,1.1,4.9-0.7,7c-2.1,2.6-4.9,4-8.3,3.8
			c-4.3-0.2-7.8-2.2-10.3-5.7c-2.1-3-2.3-6.1-0.4-9.3c0.3-0.5,0.6-0.9,0.9-1.4c0.1-0.2,0.2-0.4,0.4-0.6
			C278.2,288.9,277.8,288.8,277.4,288.8z M293.1,299.9c0.7-0.9,0.8-1.9,0.3-2.9c-0.4-0.7-0.9-1.5-1.4-2.1c-2.3-2.4-5.2-3.8-8.3-4.9
			c-0.4-0.1-0.6,0-0.9,0.2c-0.6,0.8-1.3,1.6-1.9,2.5c-1.1,1.7-1,3.5,0,5.2c1.6,2.8,4.1,4.2,7.3,4.5
			C290.3,302.3,291.9,301.4,293.1,299.9z"/>
		<path class="st23" d="M246.7,286.1c0.9-1.1,1.9-2,3.3-2.5c1.8-0.6,3.4-0.1,4.3,1.4c0.8,1.3,1.2,2.6,0.9,4.2c-0.2,1-0.6,2-1.1,2.9
			c-1.4,2.5-3.3,4.4-5.4,6.3c-0.5,0.5-1.1,0.9-1.7,1.3c-0.4,0.3-0.9,0.3-1.4,0c-0.2-0.2-0.5-0.4-0.7-0.6c-2.6-2.5-4.9-5.3-7-8.2
			c-0.5-0.6-0.8-1.3-1.1-2c-0.6-1.4-0.4-2.8,0.6-4c1-1.2,2.4-1.6,3.9-1.4c1.4,0.2,2.6,1,3.6,2c0.4,0.4,0.7,0.8,1.1,1.3
			C246.4,286.5,246.5,286.3,246.7,286.1z M251.8,290.1c0.7-1.1,0.9-2.3,0.5-3.5c-0.4-0.9-0.8-1.1-1.7-0.7c-1.2,0.5-2.1,1.4-2.7,2.7
			c-0.2,0.5-0.4,1-0.6,1.5c-0.1,0.4-0.3,0.7-0.8,0.7c-0.5,0-0.8-0.3-0.8-0.8c-0.1-1.8-1.3-2.9-2.6-3.8c-0.5-0.4-1.2-0.6-1.8-0.7
			c-1.5-0.2-2.5,1.1-1.8,2.5c0.3,0.7,0.8,1.4,1.3,2c1.4,1.7,2.8,3.3,4.1,5c0.4,0.5,0.9,1.1,1.4,1.8
			C248.4,294.5,250.3,292.5,251.8,290.1z"/>
		<path class="st23" d="M217.4,279.7c1.5-2,3.4-3.6,5.8-4.4c3.2-1.1,5.9-0.2,7.7,2.4c1.5,2.2,2.1,4.7,1.6,7.3
			c-0.3,1.8-1,3.5-1.9,5.1c-2.5,4.3-5.9,7.8-9.5,11.2c-0.9,0.8-2,1.6-3,2.3c-0.8,0.6-1.6,0.6-2.4,0c-0.4-0.3-0.8-0.6-1.2-1
			c-4.6-4.4-8.6-9.4-12.3-14.5c-0.8-1.1-1.4-2.3-2-3.6c-1.1-2.5-0.8-4.9,1-7.1c1.8-2.1,4.2-2.9,6.9-2.4c2.5,0.4,4.6,1.7,6.3,3.6
			c0.7,0.7,1.3,1.5,2,2.3C216.8,280.5,217.1,280.1,217.4,279.7z M226.3,286.8c1.2-1.9,1.7-4,0.8-6.2c-0.6-1.6-1.5-2-3.1-1.3
			c-2.2,0.9-3.8,2.5-4.7,4.7c-0.4,0.9-0.7,1.8-1,2.7c-0.2,0.7-0.6,1.3-1.4,1.2c-0.9-0.1-1.4-0.6-1.4-1.4c-0.3-3.1-2.2-5.1-4.5-6.7
			c-0.9-0.6-2-1.1-3.1-1.3c-2.7-0.4-4.4,1.9-3.2,4.4c0.6,1.2,1.4,2.4,2.2,3.4c2.4,3,4.9,5.9,7.3,8.9c0.8,1,1.6,2,2.5,3.1
			C220.3,294.7,223.8,291.1,226.3,286.8z"/>
	</g>
</g>
</svg>
